{
	"asset":{
		"generator":"Khronos glTF Blender I/O v4.0.44",
		"version":"2.0"
	},
	"scene":0,
	"scenes":[
		{
			"name":"Scene",
			"nodes":[
				0,
				1,
				2,
				3,
				4,
				5,
				6,
				7,
				8,
				9,
				10,
				11
			]
		}
	],
	"nodes":[
		{
			"mesh":0,
			"name":"square-convcol"
		},
		{
			"mesh":1,
			"name":"edge_1-convcol",
			"translation":[
				4,
				0,
				0
			]
		},
		{
			"mesh":2,
			"name":"edge_2-convcol",
			"translation":[
				-4,
				0,
				0
			]
		},
		{
			"mesh":3,
			"name":"corner_2a-convcol",
			"translation":[
				-6,
				0,
				0
			]
		},
		{
			"mesh":4,
			"name":"corner_1a-convcol",
			"translation":[
				6,
				0,
				0
			]
		},
		{
			"mesh":5,
			"name":"corner_1b-convcol",
			"translation":[
				2,
				0,
				0
			]
		},
		{
			"mesh":6,
			"name":"corner_2b-convcol",
			"translation":[
				-2,
				0,
				0
			]
		},
		{
			"mesh":7,
			"name":"stairs-col",
			"translation":[
				0,
				0,
				-6
			]
		},
		{
			"mesh":8,
			"name":"doorway-col",
			"translation":[
				0,
				0,
				6
			]
		},
		{
			"mesh":9,
			"name":"window_1-col",
			"translation":[
				-4,
				0,
				6
			]
		},
		{
			"mesh":10,
			"name":"window_2-col",
			"translation":[
				-8,
				0,
				6
			]
		},
		{
			"mesh":11,
			"name":"window_3-col",
			"translation":[
				-12,
				0,
				6
			]
		}
	],
	"materials":[
		{
			"doubleSided":true,
			"name":"concrete",
			"pbrMetallicRoughness":{
				"baseColorTexture":{
					"index":0
				},
				"metallicFactor":0,
				"roughnessFactor":0.5
			}
		}
	],
	"meshes":[
		{
			"name":"Cube",
			"primitives":[
				{
					"attributes":{
						"POSITION":0,
						"NORMAL":1,
						"TEXCOORD_0":2
					},
					"indices":3,
					"material":0
				}
			]
		},
		{
			"name":"Cube.001",
			"primitives":[
				{
					"attributes":{
						"POSITION":4,
						"NORMAL":5,
						"TEXCOORD_0":6
					},
					"indices":7,
					"material":0
				}
			]
		},
		{
			"name":"Cube.002",
			"primitives":[
				{
					"attributes":{
						"POSITION":8,
						"NORMAL":9,
						"TEXCOORD_0":10
					},
					"indices":11,
					"material":0
				}
			]
		},
		{
			"name":"Cube.003",
			"primitives":[
				{
					"attributes":{
						"POSITION":12,
						"NORMAL":13,
						"TEXCOORD_0":14
					},
					"indices":15,
					"material":0
				}
			]
		},
		{
			"name":"Cube.004",
			"primitives":[
				{
					"attributes":{
						"POSITION":16,
						"NORMAL":17,
						"TEXCOORD_0":18
					},
					"indices":19,
					"material":0
				}
			]
		},
		{
			"name":"Cube.005",
			"primitives":[
				{
					"attributes":{
						"POSITION":20,
						"NORMAL":21,
						"TEXCOORD_0":22
					},
					"indices":23,
					"material":0
				}
			]
		},
		{
			"name":"Cube.006",
			"primitives":[
				{
					"attributes":{
						"POSITION":24,
						"NORMAL":25,
						"TEXCOORD_0":26
					},
					"indices":27,
					"material":0
				}
			]
		},
		{
			"name":"Cube.007",
			"primitives":[
				{
					"attributes":{
						"POSITION":28,
						"NORMAL":29,
						"TEXCOORD_0":30
					},
					"indices":31,
					"material":0
				}
			]
		},
		{
			"name":"Cube.009",
			"primitives":[
				{
					"attributes":{
						"POSITION":32,
						"NORMAL":33,
						"TEXCOORD_0":34
					},
					"indices":35,
					"material":0
				}
			]
		},
		{
			"name":"Cube.010",
			"primitives":[
				{
					"attributes":{
						"POSITION":36,
						"NORMAL":37,
						"TEXCOORD_0":38
					},
					"indices":39,
					"material":0
				}
			]
		},
		{
			"name":"Cube.011",
			"primitives":[
				{
					"attributes":{
						"POSITION":40,
						"NORMAL":41,
						"TEXCOORD_0":42
					},
					"indices":43,
					"material":0
				}
			]
		},
		{
			"name":"Cube.012",
			"primitives":[
				{
					"attributes":{
						"POSITION":44,
						"NORMAL":45,
						"TEXCOORD_0":46
					},
					"indices":39,
					"material":0
				}
			]
		}
	],
	"textures":[
		{
			"sampler":0,
			"source":0
		}
	],
	"images":[
		{
			"mimeType":"image/png",
			"name":"concrete_1_albedo",
			"uri":"concrete_1_albedo.png"
		}
	],
	"accessors":[
		{
			"bufferView":0,
			"componentType":5126,
			"count":24,
			"max":[
				1,
				1,
				1
			],
			"min":[
				-1,
				-1,
				-1
			],
			"type":"VEC3"
		},
		{
			"bufferView":1,
			"componentType":5126,
			"count":24,
			"type":"VEC3"
		},
		{
			"bufferView":2,
			"componentType":5126,
			"count":24,
			"type":"VEC2"
		},
		{
			"bufferView":3,
			"componentType":5123,
			"count":36,
			"type":"SCALAR"
		},
		{
			"bufferView":4,
			"componentType":5126,
			"count":30,
			"max":[
				1,
				1,
				1
			],
			"min":[
				-1,
				-1,
				-1
			],
			"type":"VEC3"
		},
		{
			"bufferView":5,
			"componentType":5126,
			"count":30,
			"type":"VEC3"
		},
		{
			"bufferView":6,
			"componentType":5126,
			"count":30,
			"type":"VEC2"
		},
		{
			"bufferView":7,
			"componentType":5123,
			"count":48,
			"type":"SCALAR"
		},
		{
			"bufferView":8,
			"componentType":5126,
			"count":18,
			"max":[
				1,
				1,
				1
			],
			"min":[
				-1,
				-1,
				-1
			],
			"type":"VEC3"
		},
		{
			"bufferView":9,
			"componentType":5126,
			"count":18,
			"type":"VEC3"
		},
		{
			"bufferView":10,
			"componentType":5126,
			"count":18,
			"type":"VEC2"
		},
		{
			"bufferView":11,
			"componentType":5123,
			"count":24,
			"type":"SCALAR"
		},
		{
			"bufferView":12,
			"componentType":5126,
			"count":16,
			"max":[
				1,
				1,
				1
			],
			"min":[
				-1,
				-1,
				-1
			],
			"type":"VEC3"
		},
		{
			"bufferView":13,
			"componentType":5126,
			"count":16,
			"type":"VEC3"
		},
		{
			"bufferView":14,
			"componentType":5126,
			"count":16,
			"type":"VEC2"
		},
		{
			"bufferView":15,
			"componentType":5123,
			"count":18,
			"type":"SCALAR"
		},
		{
			"bufferView":16,
			"componentType":5126,
			"count":34,
			"max":[
				1,
				1,
				1
			],
			"min":[
				-1,
				-1,
				-1
			],
			"type":"VEC3"
		},
		{
			"bufferView":17,
			"componentType":5126,
			"count":34,
			"type":"VEC3"
		},
		{
			"bufferView":18,
			"componentType":5126,
			"count":34,
			"type":"VEC2"
		},
		{
			"bufferView":19,
			"componentType":5123,
			"count":54,
			"type":"SCALAR"
		},
		{
			"bufferView":20,
			"componentType":5126,
			"count":30,
			"max":[
				1,
				1,
				1
			],
			"min":[
				-1,
				-1,
				-1
			],
			"type":"VEC3"
		},
		{
			"bufferView":21,
			"componentType":5126,
			"count":30,
			"type":"VEC3"
		},
		{
			"bufferView":22,
			"componentType":5126,
			"count":30,
			"type":"VEC2"
		},
		{
			"bufferView":23,
			"componentType":5123,
			"count":48,
			"type":"SCALAR"
		},
		{
			"bufferView":24,
			"componentType":5126,
			"count":24,
			"max":[
				1.0115633010864258,
				1.0058438777923584,
				1.0038219690322876
			],
			"min":[
				-1,
				-1,
				-1
			],
			"type":"VEC3"
		},
		{
			"bufferView":25,
			"componentType":5126,
			"count":24,
			"type":"VEC3"
		},
		{
			"bufferView":26,
			"componentType":5126,
			"count":24,
			"type":"VEC2"
		},
		{
			"bufferView":27,
			"componentType":5123,
			"count":30,
			"type":"SCALAR"
		},
		{
			"bufferView":28,
			"componentType":5126,
			"count":114,
			"max":[
				1,
				1,
				1
			],
			"min":[
				-1,
				-1,
				-1
			],
			"type":"VEC3"
		},
		{
			"bufferView":29,
			"componentType":5126,
			"count":114,
			"type":"VEC3"
		},
		{
			"bufferView":30,
			"componentType":5126,
			"count":114,
			"type":"VEC2"
		},
		{
			"bufferView":31,
			"componentType":5123,
			"count":216,
			"type":"SCALAR"
		},
		{
			"bufferView":32,
			"componentType":5126,
			"count":48,
			"max":[
				3,
				5,
				1
			],
			"min":[
				-1,
				-1,
				-1
			],
			"type":"VEC3"
		},
		{
			"bufferView":33,
			"componentType":5126,
			"count":48,
			"type":"VEC3"
		},
		{
			"bufferView":34,
			"componentType":5126,
			"count":48,
			"type":"VEC2"
		},
		{
			"bufferView":35,
			"componentType":5123,
			"count":96,
			"type":"SCALAR"
		},
		{
			"bufferView":36,
			"componentType":5126,
			"count":48,
			"max":[
				3,
				3,
				1
			],
			"min":[
				-1,
				-1,
				-1
			],
			"type":"VEC3"
		},
		{
			"bufferView":37,
			"componentType":5126,
			"count":48,
			"type":"VEC3"
		},
		{
			"bufferView":38,
			"componentType":5126,
			"count":48,
			"type":"VEC2"
		},
		{
			"bufferView":39,
			"componentType":5123,
			"count":96,
			"type":"SCALAR"
		},
		{
			"bufferView":40,
			"componentType":5126,
			"count":80,
			"max":[
				3,
				3,
				1
			],
			"min":[
				-1,
				-1,
				-1
			],
			"type":"VEC3"
		},
		{
			"bufferView":41,
			"componentType":5126,
			"count":80,
			"type":"VEC3"
		},
		{
			"bufferView":42,
			"componentType":5126,
			"count":80,
			"type":"VEC2"
		},
		{
			"bufferView":43,
			"componentType":5123,
			"count":180,
			"type":"SCALAR"
		},
		{
			"bufferView":44,
			"componentType":5126,
			"count":48,
			"max":[
				3,
				3,
				1
			],
			"min":[
				-1,
				-1,
				-1
			],
			"type":"VEC3"
		},
		{
			"bufferView":45,
			"componentType":5126,
			"count":48,
			"type":"VEC3"
		},
		{
			"bufferView":46,
			"componentType":5126,
			"count":48,
			"type":"VEC2"
		}
	],
	"bufferViews":[
		{
			"buffer":0,
			"byteLength":288,
			"byteOffset":0,
			"target":34962
		},
		{
			"buffer":0,
			"byteLength":288,
			"byteOffset":288,
			"target":34962
		},
		{
			"buffer":0,
			"byteLength":192,
			"byteOffset":576,
			"target":34962
		},
		{
			"buffer":0,
			"byteLength":72,
			"byteOffset":768,
			"target":34963
		},
		{
			"buffer":0,
			"byteLength":360,
			"byteOffset":840,
			"target":34962
		},
		{
			"buffer":0,
			"byteLength":360,
			"byteOffset":1200,
			"target":34962
		},
		{
			"buffer":0,
			"byteLength":240,
			"byteOffset":1560,
			"target":34962
		},
		{
			"buffer":0,
			"byteLength":96,
			"byteOffset":1800,
			"target":34963
		},
		{
			"buffer":0,
			"byteLength":216,
			"byteOffset":1896,
			"target":34962
		},
		{
			"buffer":0,
			"byteLength":216,
			"byteOffset":2112,
			"target":34962
		},
		{
			"buffer":0,
			"byteLength":144,
			"byteOffset":2328,
			"target":34962
		},
		{
			"buffer":0,
			"byteLength":48,
			"byteOffset":2472,
			"target":34963
		},
		{
			"buffer":0,
			"byteLength":192,
			"byteOffset":2520,
			"target":34962
		},
		{
			"buffer":0,
			"byteLength":192,
			"byteOffset":2712,
			"target":34962
		},
		{
			"buffer":0,
			"byteLength":128,
			"byteOffset":2904,
			"target":34962
		},
		{
			"buffer":0,
			"byteLength":36,
			"byteOffset":3032,
			"target":34963
		},
		{
			"buffer":0,
			"byteLength":408,
			"byteOffset":3068,
			"target":34962
		},
		{
			"buffer":0,
			"byteLength":408,
			"byteOffset":3476,
			"target":34962
		},
		{
			"buffer":0,
			"byteLength":272,
			"byteOffset":3884,
			"target":34962
		},
		{
			"buffer":0,
			"byteLength":108,
			"byteOffset":4156,
			"target":34963
		},
		{
			"buffer":0,
			"byteLength":360,
			"byteOffset":4264,
			"target":34962
		},
		{
			"buffer":0,
			"byteLength":360,
			"byteOffset":4624,
			"target":34962
		},
		{
			"buffer":0,
			"byteLength":240,
			"byteOffset":4984,
			"target":34962
		},
		{
			"buffer":0,
			"byteLength":96,
			"byteOffset":5224,
			"target":34963
		},
		{
			"buffer":0,
			"byteLength":288,
			"byteOffset":5320,
			"target":34962
		},
		{
			"buffer":0,
			"byteLength":288,
			"byteOffset":5608,
			"target":34962
		},
		{
			"buffer":0,
			"byteLength":192,
			"byteOffset":5896,
			"target":34962
		},
		{
			"buffer":0,
			"byteLength":60,
			"byteOffset":6088,
			"target":34963
		},
		{
			"buffer":0,
			"byteLength":1368,
			"byteOffset":6148,
			"target":34962
		},
		{
			"buffer":0,
			"byteLength":1368,
			"byteOffset":7516,
			"target":34962
		},
		{
			"buffer":0,
			"byteLength":912,
			"byteOffset":8884,
			"target":34962
		},
		{
			"buffer":0,
			"byteLength":432,
			"byteOffset":9796,
			"target":34963
		},
		{
			"buffer":0,
			"byteLength":576,
			"byteOffset":10228,
			"target":34962
		},
		{
			"buffer":0,
			"byteLength":576,
			"byteOffset":10804,
			"target":34962
		},
		{
			"buffer":0,
			"byteLength":384,
			"byteOffset":11380,
			"target":34962
		},
		{
			"buffer":0,
			"byteLength":192,
			"byteOffset":11764,
			"target":34963
		},
		{
			"buffer":0,
			"byteLength":576,
			"byteOffset":11956,
			"target":34962
		},
		{
			"buffer":0,
			"byteLength":576,
			"byteOffset":12532,
			"target":34962
		},
		{
			"buffer":0,
			"byteLength":384,
			"byteOffset":13108,
			"target":34962
		},
		{
			"buffer":0,
			"byteLength":192,
			"byteOffset":13492,
			"target":34963
		},
		{
			"buffer":0,
			"byteLength":960,
			"byteOffset":13684,
			"target":34962
		},
		{
			"buffer":0,
			"byteLength":960,
			"byteOffset":14644,
			"target":34962
		},
		{
			"buffer":0,
			"byteLength":640,
			"byteOffset":15604,
			"target":34962
		},
		{
			"buffer":0,
			"byteLength":360,
			"byteOffset":16244,
			"target":34963
		},
		{
			"buffer":0,
			"byteLength":576,
			"byteOffset":16604,
			"target":34962
		},
		{
			"buffer":0,
			"byteLength":576,
			"byteOffset":17180,
			"target":34962
		},
		{
			"buffer":0,
			"byteLength":384,
			"byteOffset":17756,
			"target":34962
		}
	],
	"samplers":[
		{
			"magFilter":9729,
			"minFilter":9987
		}
	],
	"buffers":[
		{
			"byteLength":18140,
			"uri":"test_blocks.bin"
		}
	]
}
