{
	"asset":{
		"generator":"Khronos glTF Blender I/O v4.0.44",
		"version":"2.0"
	},
	"scene":0,
	"scenes":[
		{
			"name":"Scene",
			"nodes":[
				0,
				1
			]
		}
	],
	"nodes":[
		{
			"name":"Empty",
			"rotation":[
				0.7071068286895752,
				0,
				0,
				0.7071068286895752
			],
			"scale":[
				0.2995032072067261,
				0.2995032072067261,
				0.2995032072067261
			],
			"translation":[
				-0.32774338126182556,
				0.523245096206665,
				-1.0757441520690918
			]
		},
		{
			"mesh":0,
			"name":"Plane"
		}
	],
	"meshes":[
		{
			"name":"Plane.001",
			"primitives":[
				{
					"attributes":{
						"POSITION":0,
						"NORMAL":1,
						"TEXCOORD_0":2
					},
					"indices":3
				}
			]
		}
	],
	"accessors":[
		{
			"bufferView":0,
			"componentType":5126,
			"count":1310,
			"max":[
				0.48893141746520996,
				1.036272644996643,
				0.12075038254261017
			],
			"min":[
				-0.48893141746520996,
				-0.031157661229372025,
				-0.4799325466156006
			],
			"type":"VEC3"
		},
		{
			"bufferView":1,
			"componentType":5126,
			"count":1310,
			"type":"VEC3"
		},
		{
			"bufferView":2,
			"componentType":5126,
			"count":1310,
			"type":"VEC2"
		},
		{
			"bufferView":3,
			"componentType":5123,
			"count":7446,
			"type":"SCALAR"
		}
	],
	"bufferViews":[
		{
			"buffer":0,
			"byteLength":15720,
			"byteOffset":0,
			"target":34962
		},
		{
			"buffer":0,
			"byteLength":15720,
			"byteOffset":15720,
			"target":34962
		},
		{
			"buffer":0,
			"byteLength":10480,
			"byteOffset":31440,
			"target":34962
		},
		{
			"buffer":0,
			"byteLength":14892,
			"byteOffset":41920,
			"target":34963
		}
	],
	"buffers":[
		{
			"byteLength":56812,
			"uri":"test_enemy.bin"
		}
	]
}
