{
    "asset" : {
        "generator" : "Khronos glTF Blender I/O v1.7.33",
        "version" : "2.0"
    },
    "scene" : 0,
    "scenes" : [
        {
            "name" : "Scene",
            "nodes" : [
                0,
                1,
                2,
                3,
                4
            ]
        }
    ],
    "nodes" : [
        {
            "mesh" : 0,
            "name" : "floor-col"
        },
        {
            "mesh" : 1,
            "name" : "ceiling-col"
        },
        {
            "mesh" : 2,
            "name" : "wall-col"
        },
        {
            "mesh" : 3,
            "name" : "wall_corner-col",
            "translation" : [
                -4,
                0,
                0
            ]
        },
        {
            "mesh" : 4,
            "name" : "doorway-col",
            "translation" : [
                4,
                0,
                0
            ]
        }
    ],
    "materials" : [
        {
            "name" : "concrete_square",
            "pbrMetallicRoughness" : {
                "baseColorTexture" : {
                    "index" : 0
                },
                "metallicFactor" : 0,
                "roughnessFactor" : 0.5
            }
        },
        {
            "name" : "concrete",
            "pbrMetallicRoughness" : {
                "baseColorTexture" : {
                    "index" : 1
                },
                "metallicFactor" : 0,
                "roughnessFactor" : 0.5
            }
        }
    ],
    "meshes" : [
        {
            "name" : "floor_mesh",
            "primitives" : [
                {
                    "attributes" : {
                        "POSITION" : 0,
                        "NORMAL" : 1,
                        "TEXCOORD_0" : 2
                    },
                    "indices" : 3,
                    "material" : 0
                }
            ]
        },
        {
            "name" : "ceiling_mesh",
            "primitives" : [
                {
                    "attributes" : {
                        "POSITION" : 4,
                        "NORMAL" : 5,
                        "TEXCOORD_0" : 6
                    },
                    "indices" : 3,
                    "material" : 0
                }
            ]
        },
        {
            "name" : "wall_mesh",
            "primitives" : [
                {
                    "attributes" : {
                        "POSITION" : 7,
                        "NORMAL" : 8,
                        "TEXCOORD_0" : 9
                    },
                    "indices" : 10,
                    "material" : 1
                }
            ]
        },
        {
            "name" : "wall_corner_mesh",
            "primitives" : [
                {
                    "attributes" : {
                        "POSITION" : 11,
                        "NORMAL" : 12,
                        "TEXCOORD_0" : 13
                    },
                    "indices" : 14,
                    "material" : 1
                }
            ]
        },
        {
            "name" : "doorway_mesh",
            "primitives" : [
                {
                    "attributes" : {
                        "POSITION" : 15,
                        "NORMAL" : 16,
                        "TEXCOORD_0" : 17
                    },
                    "indices" : 18,
                    "material" : 1
                }
            ]
        }
    ],
    "textures" : [
        {
            "sampler" : 0,
            "source" : 0
        },
        {
            "sampler" : 0,
            "source" : 1
        }
    ],
    "images" : [
        {
            "mimeType" : "image/png",
            "name" : "concrete_square_albedo",
            "uri" : "concrete_square_albedo.png"
        },
        {
            "mimeType" : "image/png",
            "name" : "concrete_1_albedo",
            "uri" : "concrete_1_albedo.png"
        }
    ],
    "accessors" : [
        {
            "bufferView" : 0,
            "componentType" : 5126,
            "count" : 4,
            "max" : [
                2,
                -2,
                2
            ],
            "min" : [
                -2,
                -2,
                -2
            ],
            "type" : "VEC3"
        },
        {
            "bufferView" : 1,
            "componentType" : 5126,
            "count" : 4,
            "type" : "VEC3"
        },
        {
            "bufferView" : 2,
            "componentType" : 5126,
            "count" : 4,
            "type" : "VEC2"
        },
        {
            "bufferView" : 3,
            "componentType" : 5123,
            "count" : 6,
            "type" : "SCALAR"
        },
        {
            "bufferView" : 4,
            "componentType" : 5126,
            "count" : 4,
            "max" : [
                2,
                2.000000238418579,
                2
            ],
            "min" : [
                -2,
                2,
                -2
            ],
            "type" : "VEC3"
        },
        {
            "bufferView" : 5,
            "componentType" : 5126,
            "count" : 4,
            "type" : "VEC3"
        },
        {
            "bufferView" : 6,
            "componentType" : 5126,
            "count" : 4,
            "type" : "VEC2"
        },
        {
            "bufferView" : 7,
            "componentType" : 5126,
            "count" : 12,
            "max" : [
                1.9999998807907104,
                2,
                -1.2000000476837158
            ],
            "min" : [
                -1.9999998807907104,
                -2,
                -2
            ],
            "type" : "VEC3"
        },
        {
            "bufferView" : 8,
            "componentType" : 5126,
            "count" : 12,
            "type" : "VEC3"
        },
        {
            "bufferView" : 9,
            "componentType" : 5126,
            "count" : 12,
            "type" : "VEC2"
        },
        {
            "bufferView" : 10,
            "componentType" : 5123,
            "count" : 18,
            "type" : "SCALAR"
        },
        {
            "bufferView" : 11,
            "componentType" : 5126,
            "count" : 36,
            "max" : [
                1.9999998807907104,
                2,
                1.9999998807907104
            ],
            "min" : [
                -2,
                -2,
                -2
            ],
            "type" : "VEC3"
        },
        {
            "bufferView" : 12,
            "componentType" : 5126,
            "count" : 36,
            "type" : "VEC3"
        },
        {
            "bufferView" : 13,
            "componentType" : 5126,
            "count" : 36,
            "type" : "VEC2"
        },
        {
            "bufferView" : 14,
            "componentType" : 5123,
            "count" : 54,
            "type" : "SCALAR"
        },
        {
            "bufferView" : 15,
            "componentType" : 5126,
            "count" : 104,
            "max" : [
                2,
                2,
                -0.9999999403953552
            ],
            "min" : [
                -2,
                -2,
                -2
            ],
            "type" : "VEC3"
        },
        {
            "bufferView" : 16,
            "componentType" : 5126,
            "count" : 104,
            "type" : "VEC3"
        },
        {
            "bufferView" : 17,
            "componentType" : 5126,
            "count" : 104,
            "type" : "VEC2"
        },
        {
            "bufferView" : 18,
            "componentType" : 5123,
            "count" : 156,
            "type" : "SCALAR"
        }
    ],
    "bufferViews" : [
        {
            "buffer" : 0,
            "byteLength" : 48,
            "byteOffset" : 0
        },
        {
            "buffer" : 0,
            "byteLength" : 48,
            "byteOffset" : 48
        },
        {
            "buffer" : 0,
            "byteLength" : 32,
            "byteOffset" : 96
        },
        {
            "buffer" : 0,
            "byteLength" : 12,
            "byteOffset" : 128
        },
        {
            "buffer" : 0,
            "byteLength" : 48,
            "byteOffset" : 140
        },
        {
            "buffer" : 0,
            "byteLength" : 48,
            "byteOffset" : 188
        },
        {
            "buffer" : 0,
            "byteLength" : 32,
            "byteOffset" : 236
        },
        {
            "buffer" : 0,
            "byteLength" : 144,
            "byteOffset" : 268
        },
        {
            "buffer" : 0,
            "byteLength" : 144,
            "byteOffset" : 412
        },
        {
            "buffer" : 0,
            "byteLength" : 96,
            "byteOffset" : 556
        },
        {
            "buffer" : 0,
            "byteLength" : 36,
            "byteOffset" : 652
        },
        {
            "buffer" : 0,
            "byteLength" : 432,
            "byteOffset" : 688
        },
        {
            "buffer" : 0,
            "byteLength" : 432,
            "byteOffset" : 1120
        },
        {
            "buffer" : 0,
            "byteLength" : 288,
            "byteOffset" : 1552
        },
        {
            "buffer" : 0,
            "byteLength" : 108,
            "byteOffset" : 1840
        },
        {
            "buffer" : 0,
            "byteLength" : 1248,
            "byteOffset" : 1948
        },
        {
            "buffer" : 0,
            "byteLength" : 1248,
            "byteOffset" : 3196
        },
        {
            "buffer" : 0,
            "byteLength" : 832,
            "byteOffset" : 4444
        },
        {
            "buffer" : 0,
            "byteLength" : 312,
            "byteOffset" : 5276
        }
    ],
    "samplers" : [
        {
            "magFilter" : 9729,
            "minFilter" : 9987
        }
    ],
    "buffers" : [
        {
            "byteLength" : 5588,
            "uri" : "test_tileset.bin"
        }
    ]
}
