{
	"asset":{
		"generator":"Khronos glTF Blender I/O v4.0.44",
		"version":"2.0"
	},
	"scene":0,
	"scenes":[
		{
			"name":"Scene",
			"nodes":[
				0,
				1,
				2,
				3,
				4,
				5
			]
		}
	],
	"nodes":[
		{
			"mesh":0,
			"name":"bunker_entrance-col"
		},
		{
			"name":"exit_point",
			"translation":[
				0,
				0,
				-10
			]
		},
		{
			"mesh":1,
			"name":"door_front_l-convcol",
			"translation":[
				-1,
				-0.5,
				-2.200000047683716
			]
		},
		{
			"mesh":2,
			"name":"door_front_r-convcol",
			"translation":[
				1,
				-0.5,
				-2.200000047683716
			]
		},
		{
			"mesh":3,
			"name":"door_back_r-convcol",
			"translation":[
				-1,
				-0.5,
				-9.800000190734863
			]
		},
		{
			"mesh":4,
			"name":"door_back_l-convcol",
			"translation":[
				1,
				-0.5,
				-9.800000190734863
			]
		}
	],
	"materials":[
		{
			"name":"concrete",
			"pbrMetallicRoughness":{
				"baseColorFactor":[
					0.800000011920929,
					0.800000011920929,
					0.800000011920929,
					1
				],
				"metallicFactor":0,
				"roughnessFactor":0.5
			}
		},
		{
			"name":"concrete_square",
			"pbrMetallicRoughness":{
				"baseColorFactor":[
					0.800000011920929,
					0.800000011920929,
					0.800000011920929,
					1
				],
				"metallicFactor":0,
				"roughnessFactor":0.5
			}
		}
	],
	"meshes":[
		{
			"name":"bunker_entrance_mesh",
			"primitives":[
				{
					"attributes":{
						"POSITION":0,
						"NORMAL":1,
						"TEXCOORD_0":2
					},
					"indices":3,
					"material":0
				},
				{
					"attributes":{
						"POSITION":4,
						"NORMAL":5,
						"TEXCOORD_0":6
					},
					"indices":7,
					"material":1
				}
			]
		},
		{
			"name":"Cube",
			"primitives":[
				{
					"attributes":{
						"POSITION":8,
						"NORMAL":9,
						"TEXCOORD_0":10
					},
					"indices":11,
					"material":1
				}
			]
		},
		{
			"name":"Cube.001",
			"primitives":[
				{
					"attributes":{
						"POSITION":12,
						"NORMAL":13,
						"TEXCOORD_0":14
					},
					"indices":11,
					"material":1
				}
			]
		},
		{
			"name":"Cube.002",
			"primitives":[
				{
					"attributes":{
						"POSITION":15,
						"NORMAL":16,
						"TEXCOORD_0":17
					},
					"indices":11,
					"material":1
				}
			]
		},
		{
			"name":"Cube.003",
			"primitives":[
				{
					"attributes":{
						"POSITION":18,
						"NORMAL":19,
						"TEXCOORD_0":20
					},
					"indices":11,
					"material":1
				}
			]
		}
	],
	"accessors":[
		{
			"bufferView":0,
			"componentType":5126,
			"count":606,
			"max":[
				6,
				3.700000047683716,
				-0.9999999403953552
			],
			"min":[
				-6,
				-2.5,
				-11
			],
			"type":"VEC3"
		},
		{
			"bufferView":1,
			"componentType":5126,
			"count":606,
			"type":"VEC3"
		},
		{
			"bufferView":2,
			"componentType":5126,
			"count":606,
			"type":"VEC2"
		},
		{
			"bufferView":3,
			"componentType":5123,
			"count":1038,
			"type":"SCALAR"
		},
		{
			"bufferView":4,
			"componentType":5126,
			"count":170,
			"max":[
				2,
				-2,
				5.5
			],
			"min":[
				-2,
				-6,
				-10
			],
			"type":"VEC3"
		},
		{
			"bufferView":5,
			"componentType":5126,
			"count":170,
			"type":"VEC3"
		},
		{
			"bufferView":6,
			"componentType":5126,
			"count":170,
			"type":"VEC2"
		},
		{
			"bufferView":7,
			"componentType":5123,
			"count":264,
			"type":"SCALAR"
		},
		{
			"bufferView":8,
			"componentType":5126,
			"count":24,
			"max":[
				1,
				1.5,
				0.09999990463256836
			],
			"min":[
				0,
				-1.5,
				-0.09999990463256836
			],
			"type":"VEC3"
		},
		{
			"bufferView":9,
			"componentType":5126,
			"count":24,
			"type":"VEC3"
		},
		{
			"bufferView":10,
			"componentType":5126,
			"count":24,
			"type":"VEC2"
		},
		{
			"bufferView":11,
			"componentType":5123,
			"count":36,
			"type":"SCALAR"
		},
		{
			"bufferView":12,
			"componentType":5126,
			"count":24,
			"max":[
				0,
				1.5,
				0.09999990463256836
			],
			"min":[
				-1,
				-1.5,
				-0.09999990463256836
			],
			"type":"VEC3"
		},
		{
			"bufferView":13,
			"componentType":5126,
			"count":24,
			"type":"VEC3"
		},
		{
			"bufferView":14,
			"componentType":5126,
			"count":24,
			"type":"VEC2"
		},
		{
			"bufferView":15,
			"componentType":5126,
			"count":24,
			"max":[
				1,
				1.5,
				0.09999990463256836
			],
			"min":[
				0,
				-1.5,
				-0.09999990463256836
			],
			"type":"VEC3"
		},
		{
			"bufferView":16,
			"componentType":5126,
			"count":24,
			"type":"VEC3"
		},
		{
			"bufferView":17,
			"componentType":5126,
			"count":24,
			"type":"VEC2"
		},
		{
			"bufferView":18,
			"componentType":5126,
			"count":24,
			"max":[
				0,
				1.5,
				0.09999990463256836
			],
			"min":[
				-1,
				-1.5,
				-0.09999990463256836
			],
			"type":"VEC3"
		},
		{
			"bufferView":19,
			"componentType":5126,
			"count":24,
			"type":"VEC3"
		},
		{
			"bufferView":20,
			"componentType":5126,
			"count":24,
			"type":"VEC2"
		}
	],
	"bufferViews":[
		{
			"buffer":0,
			"byteLength":7272,
			"byteOffset":0,
			"target":34962
		},
		{
			"buffer":0,
			"byteLength":7272,
			"byteOffset":7272,
			"target":34962
		},
		{
			"buffer":0,
			"byteLength":4848,
			"byteOffset":14544,
			"target":34962
		},
		{
			"buffer":0,
			"byteLength":2076,
			"byteOffset":19392,
			"target":34963
		},
		{
			"buffer":0,
			"byteLength":2040,
			"byteOffset":21468,
			"target":34962
		},
		{
			"buffer":0,
			"byteLength":2040,
			"byteOffset":23508,
			"target":34962
		},
		{
			"buffer":0,
			"byteLength":1360,
			"byteOffset":25548,
			"target":34962
		},
		{
			"buffer":0,
			"byteLength":528,
			"byteOffset":26908,
			"target":34963
		},
		{
			"buffer":0,
			"byteLength":288,
			"byteOffset":27436,
			"target":34962
		},
		{
			"buffer":0,
			"byteLength":288,
			"byteOffset":27724,
			"target":34962
		},
		{
			"buffer":0,
			"byteLength":192,
			"byteOffset":28012,
			"target":34962
		},
		{
			"buffer":0,
			"byteLength":72,
			"byteOffset":28204,
			"target":34963
		},
		{
			"buffer":0,
			"byteLength":288,
			"byteOffset":28276,
			"target":34962
		},
		{
			"buffer":0,
			"byteLength":288,
			"byteOffset":28564,
			"target":34962
		},
		{
			"buffer":0,
			"byteLength":192,
			"byteOffset":28852,
			"target":34962
		},
		{
			"buffer":0,
			"byteLength":288,
			"byteOffset":29044,
			"target":34962
		},
		{
			"buffer":0,
			"byteLength":288,
			"byteOffset":29332,
			"target":34962
		},
		{
			"buffer":0,
			"byteLength":192,
			"byteOffset":29620,
			"target":34962
		},
		{
			"buffer":0,
			"byteLength":288,
			"byteOffset":29812,
			"target":34962
		},
		{
			"buffer":0,
			"byteLength":288,
			"byteOffset":30100,
			"target":34962
		},
		{
			"buffer":0,
			"byteLength":192,
			"byteOffset":30388,
			"target":34962
		}
	],
	"buffers":[
		{
			"byteLength":30580,
			"uri":"bunker_entrance.bin"
		}
	]
}
