{
	"asset":{
		"generator":"Khronos glTF Blender I/O v4.0.44",
		"version":"2.0"
	},
	"scene":0,
	"scenes":[
		{
			"name":"Scene",
			"nodes":[
				0,
				1,
				2,
				3,
				4,
				5
			]
		}
	],
	"nodes":[
		{
			"mesh":0,
			"name":"bunker_entrance-col"
		},
		{
			"name":"exit_point",
			"translation":[
				0,
				0,
				-10
			]
		},
		{
			"mesh":1,
			"name":"door_front_l-convcol",
			"translation":[
				-1,
				-0.5,
				-2.200000047683716
			]
		},
		{
			"mesh":2,
			"name":"door_front_r-convcol",
			"translation":[
				1,
				-0.5,
				-2.200000047683716
			]
		},
		{
			"mesh":3,
			"name":"door_back_r-convcol",
			"translation":[
				-1,
				-0.5,
				-9.800000190734863
			]
		},
		{
			"mesh":4,
			"name":"door_back_l-convcol",
			"translation":[
				1,
				-0.5,
				-9.800000190734863
			]
		}
	],
	"materials":[
		{
			"name":"concrete_square.001",
			"pbrMetallicRoughness":{
				"baseColorTexture":{
					"index":0
				},
				"metallicFactor":0,
				"roughnessFactor":0.5
			}
		},
		{
			"name":"concrete",
			"pbrMetallicRoughness":{
				"baseColorTexture":{
					"index":1
				},
				"metallicFactor":0,
				"roughnessFactor":0.5
			}
		},
		{
			"name":"concrete_square",
			"pbrMetallicRoughness":{
				"baseColorTexture":{
					"index":2
				},
				"metallicFactor":0,
				"roughnessFactor":0.5
			}
		}
	],
	"meshes":[
		{
			"name":"bunker_entrance_mesh",
			"primitives":[
				{
					"attributes":{
						"POSITION":0,
						"NORMAL":1,
						"TEXCOORD_0":2
					},
					"indices":3,
					"material":0
				},
				{
					"attributes":{
						"POSITION":4,
						"NORMAL":5,
						"TEXCOORD_0":6
					},
					"indices":7,
					"material":1
				}
			]
		},
		{
			"name":"Cube",
			"primitives":[
				{
					"attributes":{
						"POSITION":8,
						"NORMAL":9,
						"TEXCOORD_0":10
					},
					"indices":11,
					"material":2
				}
			]
		},
		{
			"name":"Cube.001",
			"primitives":[
				{
					"attributes":{
						"POSITION":12,
						"NORMAL":13,
						"TEXCOORD_0":14
					},
					"indices":11,
					"material":2
				}
			]
		},
		{
			"name":"Cube.002",
			"primitives":[
				{
					"attributes":{
						"POSITION":15,
						"NORMAL":16,
						"TEXCOORD_0":17
					},
					"indices":11,
					"material":2
				}
			]
		},
		{
			"name":"Cube.003",
			"primitives":[
				{
					"attributes":{
						"POSITION":18,
						"NORMAL":19,
						"TEXCOORD_0":20
					},
					"indices":11,
					"material":2
				}
			]
		}
	],
	"textures":[
		{
			"sampler":0,
			"source":0
		},
		{
			"sampler":0,
			"source":1
		},
		{
			"sampler":0,
			"source":0
		}
	],
	"images":[
		{
			"mimeType":"image/png",
			"name":"concrete_square_albedo",
			"uri":"textures/concrete_square_albedo.png"
		},
		{
			"mimeType":"image/png",
			"name":"concrete_1_albedo",
			"uri":"textures/concrete_1_albedo.png"
		}
	],
	"accessors":[
		{
			"bufferView":0,
			"componentType":5126,
			"count":170,
			"max":[
				2,
				-2,
				5.5
			],
			"min":[
				-2,
				-6,
				-10
			],
			"type":"VEC3"
		},
		{
			"bufferView":1,
			"componentType":5126,
			"count":170,
			"type":"VEC3"
		},
		{
			"bufferView":2,
			"componentType":5126,
			"count":170,
			"type":"VEC2"
		},
		{
			"bufferView":3,
			"componentType":5123,
			"count":264,
			"type":"SCALAR"
		},
		{
			"bufferView":4,
			"componentType":5126,
			"count":591,
			"max":[
				6,
				3.700000047683716,
				-0.9999999403953552
			],
			"min":[
				-6,
				-2,
				-11
			],
			"type":"VEC3"
		},
		{
			"bufferView":5,
			"componentType":5126,
			"count":591,
			"type":"VEC3"
		},
		{
			"bufferView":6,
			"componentType":5126,
			"count":591,
			"type":"VEC2"
		},
		{
			"bufferView":7,
			"componentType":5123,
			"count":972,
			"type":"SCALAR"
		},
		{
			"bufferView":8,
			"componentType":5126,
			"count":24,
			"max":[
				1,
				1.5,
				0.09999990463256836
			],
			"min":[
				0,
				-1.5,
				-0.09999990463256836
			],
			"type":"VEC3"
		},
		{
			"bufferView":9,
			"componentType":5126,
			"count":24,
			"type":"VEC3"
		},
		{
			"bufferView":10,
			"componentType":5126,
			"count":24,
			"type":"VEC2"
		},
		{
			"bufferView":11,
			"componentType":5123,
			"count":36,
			"type":"SCALAR"
		},
		{
			"bufferView":12,
			"componentType":5126,
			"count":24,
			"max":[
				0,
				1.5,
				0.09999990463256836
			],
			"min":[
				-1,
				-1.5,
				-0.09999990463256836
			],
			"type":"VEC3"
		},
		{
			"bufferView":13,
			"componentType":5126,
			"count":24,
			"type":"VEC3"
		},
		{
			"bufferView":14,
			"componentType":5126,
			"count":24,
			"type":"VEC2"
		},
		{
			"bufferView":15,
			"componentType":5126,
			"count":24,
			"max":[
				1,
				1.5,
				0.09999990463256836
			],
			"min":[
				0,
				-1.5,
				-0.09999990463256836
			],
			"type":"VEC3"
		},
		{
			"bufferView":16,
			"componentType":5126,
			"count":24,
			"type":"VEC3"
		},
		{
			"bufferView":17,
			"componentType":5126,
			"count":24,
			"type":"VEC2"
		},
		{
			"bufferView":18,
			"componentType":5126,
			"count":24,
			"max":[
				0,
				1.5,
				0.09999990463256836
			],
			"min":[
				-1,
				-1.5,
				-0.09999990463256836
			],
			"type":"VEC3"
		},
		{
			"bufferView":19,
			"componentType":5126,
			"count":24,
			"type":"VEC3"
		},
		{
			"bufferView":20,
			"componentType":5126,
			"count":24,
			"type":"VEC2"
		}
	],
	"bufferViews":[
		{
			"buffer":0,
			"byteLength":2040,
			"byteOffset":0,
			"target":34962
		},
		{
			"buffer":0,
			"byteLength":2040,
			"byteOffset":2040,
			"target":34962
		},
		{
			"buffer":0,
			"byteLength":1360,
			"byteOffset":4080,
			"target":34962
		},
		{
			"buffer":0,
			"byteLength":528,
			"byteOffset":5440,
			"target":34963
		},
		{
			"buffer":0,
			"byteLength":7092,
			"byteOffset":5968,
			"target":34962
		},
		{
			"buffer":0,
			"byteLength":7092,
			"byteOffset":13060,
			"target":34962
		},
		{
			"buffer":0,
			"byteLength":4728,
			"byteOffset":20152,
			"target":34962
		},
		{
			"buffer":0,
			"byteLength":1944,
			"byteOffset":24880,
			"target":34963
		},
		{
			"buffer":0,
			"byteLength":288,
			"byteOffset":26824,
			"target":34962
		},
		{
			"buffer":0,
			"byteLength":288,
			"byteOffset":27112,
			"target":34962
		},
		{
			"buffer":0,
			"byteLength":192,
			"byteOffset":27400,
			"target":34962
		},
		{
			"buffer":0,
			"byteLength":72,
			"byteOffset":27592,
			"target":34963
		},
		{
			"buffer":0,
			"byteLength":288,
			"byteOffset":27664,
			"target":34962
		},
		{
			"buffer":0,
			"byteLength":288,
			"byteOffset":27952,
			"target":34962
		},
		{
			"buffer":0,
			"byteLength":192,
			"byteOffset":28240,
			"target":34962
		},
		{
			"buffer":0,
			"byteLength":288,
			"byteOffset":28432,
			"target":34962
		},
		{
			"buffer":0,
			"byteLength":288,
			"byteOffset":28720,
			"target":34962
		},
		{
			"buffer":0,
			"byteLength":192,
			"byteOffset":29008,
			"target":34962
		},
		{
			"buffer":0,
			"byteLength":288,
			"byteOffset":29200,
			"target":34962
		},
		{
			"buffer":0,
			"byteLength":288,
			"byteOffset":29488,
			"target":34962
		},
		{
			"buffer":0,
			"byteLength":192,
			"byteOffset":29776,
			"target":34962
		}
	],
	"samplers":[
		{
			"magFilter":9729,
			"minFilter":9987
		}
	],
	"buffers":[
		{
			"byteLength":29968,
			"uri":"bunker_entrance.bin"
		}
	]
}
